v -0.000000 -0.000000 -0.821106
v -0.000000 0.048368 -0.801071
v -0.000000 0.068402 -0.752703
v -0.000000 0.048368 -0.704336
v -0.000000 -0.000000 -0.684301
v -0.000000 -0.048368 -0.704336
v -0.000000 -0.068402 -0.752703
v -0.000000 -0.048368 -0.801071
v 0.266613 -0.000000 -0.776616
v 0.260107 0.048368 -0.757667
v 0.244402 0.068402 -0.711920
v 0.228697 0.048368 -0.666173
v 0.222192 -0.000000 -0.647224
v 0.228697 -0.048368 -0.666173
v 0.244402 -0.068402 -0.711920
v 0.260107 -0.048368 -0.757667
v 0.818301 0.000000 0.067806
v 0.798335 0.048368 0.066152
v 0.750133 0.068402 0.062158
v 0.701930 0.048368 0.058164
v 0.681964 -0.000000 0.056509
v 0.701930 -0.048368 0.058164
v 0.750133 -0.068402 0.062158
v 0.798335 -0.048368 0.066152
v 0.751947 0.000000 0.329834
v 0.733600 0.048368 0.321787
v 0.689306 0.068402 0.302357
v 0.645012 0.048368 0.282928
v 0.626665 0.000000 0.274881
v 0.645012 -0.048368 0.282928
v 0.689306 -0.068402 0.302357
v 0.733600 -0.048368 0.321787
v 0.604107 0.000000 0.556120
v 0.589367 0.048368 0.542551
v 0.553782 0.068402 0.509792
v 0.518197 0.048368 0.477034
v 0.503457 0.000000 0.463464
v 0.518197 -0.048368 0.477034
v 0.553782 -0.068402 0.509792
v 0.589367 -0.048368 0.542551
v 0.390803 0.000000 0.722141
v 0.381268 0.048368 0.704521
v 0.358247 0.068402 0.661983
v 0.335227 0.048368 0.619445
v 0.325691 0.000000 0.601825
v 0.335227 -0.048368 0.619445
v 0.358247 -0.068402 0.661983
v 0.381268 -0.048368 0.704521
v 0.135150 0.000000 0.809907
v 0.131852 0.048368 0.790146
v 0.123891 0.068402 0.742438
v 0.115930 0.048368 0.694730
v 0.112632 0.000000 0.674968
v 0.115930 -0.048368 0.694730
v 0.123891 -0.068402 0.742438
v 0.131852 -0.048368 0.790146
v -0.135150 0.000000 0.809907
v -0.131852 0.048368 0.790146
v -0.123891 0.068402 0.742438
v -0.115930 0.048368 0.694730
v -0.112632 0.000000 0.674968
v -0.115930 -0.048368 0.694730
v -0.123891 -0.068402 0.742438
v -0.131852 -0.048368 0.790146
v -0.390803 0.000000 0.722141
v -0.381268 0.048368 0.704521
v -0.358247 0.068402 0.661983
v -0.335227 0.048368 0.619445
v -0.325691 0.000000 0.601825
v -0.335227 -0.048368 0.619445
v -0.358247 -0.068402 0.661983
v -0.381268 -0.048368 0.704521
v -0.604107 0.000000 0.556120
v -0.589367 0.048368 0.542551
v -0.553782 0.068402 0.509792
v -0.518197 0.048368 0.477034
v -0.503457 0.000000 0.463464
v -0.518197 -0.048368 0.477034
v -0.553782 -0.068402 0.509792
v -0.589367 -0.048368 0.542551
v -0.751947 0.000000 0.329834
v -0.733600 0.048368 0.321787
v -0.689306 0.068402 0.302358
v -0.645012 0.048368 0.282928
v -0.626665 0.000000 0.274881
v -0.645012 -0.048368 0.282928
v -0.689306 -0.068402 0.302358
v -0.733600 -0.048368 0.321787
v -0.818301 0.000000 0.067806
v -0.798335 0.048368 0.066152
v -0.750133 0.068402 0.062158
v -0.701930 0.048368 0.058164
v -0.681964 -0.000000 0.056509
v -0.701930 -0.048368 0.058164
v -0.750133 -0.068402 0.062158
v -0.798335 -0.048368 0.066152
v -0.795980 -0.000000 -0.201570
v -0.776559 0.048368 -0.196651
v -0.729671 0.068402 -0.184778
v -0.682783 0.048368 -0.172904
v -0.663362 -0.000000 -0.167986
v -0.682783 -0.048368 -0.172904
v -0.729671 -0.068402 -0.184778
v -0.776559 -0.048368 -0.196651
v -0.687402 -0.000000 -0.449102
v -0.670630 0.048368 -0.438144
v -0.630138 0.068402 -0.411690
v -0.589646 0.048368 -0.385235
v -0.572874 -0.000000 -0.374277
v -0.589646 -0.048368 -0.385235
v -0.630138 -0.068402 -0.411690
v -0.670630 -0.048368 -0.438144
v -0.504334 -0.000000 -0.647968
v -0.492028 0.048368 -0.632158
v -0.462320 0.068402 -0.593989
v -0.432612 0.048368 -0.555820
v -0.420306 -0.000000 -0.540010
v -0.432612 -0.048368 -0.555820
v -0.462320 -0.068402 -0.593989
v -0.492028 -0.048368 -0.632158
v -0.266613 -0.000000 -0.776616
v -0.260108 0.048368 -0.757667
v -0.244403 0.068402 -0.711920
v -0.228698 0.048368 -0.666173
v -0.222192 -0.000000 -0.647224
v -0.228698 -0.048368 -0.666173
v -0.244403 -0.068402 -0.711920
v -0.260108 -0.048368 -0.757667
v 0.875090 0.000000 0.034820
v 0.840202 -0.061787 0.071537
v 0.795658 -0.107017 0.079391
v 0.734810 -0.123573 0.090120
v 0.673962 -0.107017 0.100849
v 0.629418 -0.061787 0.108703
v 0.613114 -0.000000 0.111578
v 0.629418 0.061787 0.108703
v 0.673962 0.107017 0.100849
v 0.734810 0.123573 0.090120
v 0.795658 0.107018 0.079391
v 0.855596 0.073876 0.038258
v 0.634113 -0.000000 -0.480963
v 0.634113 -0.000000 -0.480963
v 0.634113 -0.000000 -0.480963
v 0.634113 -0.000000 -0.480963
v 0.634113 -0.000000 -0.480963
v 0.634113 -0.000000 -0.480963
v 0.634113 -0.000000 -0.480963
v 0.634113 -0.000000 -0.480963
v 0.634113 -0.000000 -0.480963
v 0.634113 -0.000000 -0.480963
v 0.634113 -0.000000 -0.480963
v 0.634113 -0.000000 -0.480963
v 0.856506 0.000000 0.068662
v 0.855596 -0.073876 0.038258
v 0.802337 -0.127957 0.047649
v 0.729583 -0.147752 0.060477
v 0.656830 -0.127957 0.073306
v 0.603570 -0.073876 0.082697
v 0.584076 -0.000000 0.086134
v 0.603570 0.073876 0.082697
v 0.656830 0.127957 0.073306
v 0.729583 0.147752 0.060477
v 0.802337 0.127957 0.047649
v 0.840202 0.061787 0.071537
vn -0.000000 0.000000 -1.000000
vn -0.000000 0.687567 -0.726121
vn 0.120288 0.682575 -0.720848
vn 0.164595 0.000000 -0.986361
vn -0.000000 0.999191 -0.040223
vn 0.006712 0.999168 -0.040222
vn 0.000000 0.727753 0.685839
vn -0.113704 0.723033 0.681391
vn 0.000000 0.000000 1.000000
vn -0.164595 0.000000 0.986361
vn 0.000000 -0.727753 0.685839
vn -0.113704 -0.723033 0.681391
vn -0.000000 -0.999191 -0.040223
vn 0.006712 -0.999168 -0.040222
vn -0.000000 -0.687567 -0.726121
vn 0.120288 -0.682575 -0.720848
vn 0.969400 0.000000 0.245485
vn 0.708453 0.682575 0.179405
vn 0.664962 0.687567 0.291679
vn 0.915773 0.000000 0.401695
vn 0.039530 0.999168 0.010010
vn 0.036835 0.999191 0.016157
vn -0.669674 0.723034 -0.169585
vn -0.628073 0.727753 -0.275499
vn -0.969400 -0.000000 -0.245485
vn -0.915773 -0.000000 -0.401695
vn -0.669674 -0.723034 -0.169585
vn -0.628073 -0.727753 -0.275498
vn 0.039530 -0.999168 0.010010
vn 0.036835 -0.999191 0.016157
vn 0.708453 -0.682575 0.179405
vn 0.664962 -0.687567 0.291679
vn 0.534225 0.687567 0.491788
vn 0.735724 0.000000 0.677281
vn 0.029593 0.999191 0.027242
vn -0.504588 0.727753 -0.464506
vn -0.735724 -0.000000 -0.677281
vn -0.504588 -0.727753 -0.464506
vn 0.029593 -0.999191 0.027242
vn 0.534225 -0.687567 0.491788
vn 0.345595 0.687567 0.638604
vn 0.475947 0.000000 0.879474
vn 0.019144 0.999191 0.035375
vn -0.326424 0.727753 -0.603178
vn -0.475947 -0.000000 -0.879474
vn -0.326424 -0.727753 -0.603178
vn 0.019144 -0.999191 0.035375
vn 0.345595 -0.687567 0.638604
vn 0.119516 0.687567 0.716217
vn 0.164595 0.000000 0.986361
vn 0.006620 0.999191 0.039674
vn -0.112886 0.727753 -0.676485
vn -0.164595 -0.000000 -0.986361
vn -0.112886 -0.727753 -0.676485
vn 0.006620 -0.999191 0.039674
vn 0.119516 -0.687567 0.716217
vn -0.119515 0.687567 0.716217
vn -0.164594 0.000000 0.986361
vn -0.006620 0.999191 0.039674
vn 0.112885 0.727753 -0.676485
vn 0.164594 -0.000000 -0.986361
vn 0.112885 -0.727753 -0.676485
vn -0.006620 -0.999191 0.039674
vn -0.119515 -0.687567 0.716217
vn -0.345595 0.687567 0.638604
vn -0.475947 0.000000 0.879474
vn -0.019144 0.999191 0.035374
vn 0.326424 0.727753 -0.603178
vn 0.475948 -0.000000 -0.879474
vn 0.326423 -0.727753 -0.603178
vn -0.019144 -0.999191 0.035374
vn -0.345595 -0.687567 0.638604
vn -0.534224 0.687567 0.491788
vn -0.735724 0.000000 0.677281
vn -0.029593 0.999191 0.027242
vn 0.504588 0.727753 -0.464506
vn 0.735724 -0.000000 -0.677281
vn 0.504588 -0.727753 -0.464506
vn -0.029593 -0.999191 0.027242
vn -0.534224 -0.687567 0.491788
vn -0.664962 0.687567 0.291679
vn -0.915773 0.000000 0.401696
vn -0.036835 0.999191 0.016157
vn 0.628073 0.727753 -0.275499
vn 0.915773 -0.000000 -0.401695
vn 0.628073 -0.727753 -0.275499
vn -0.036835 -0.999191 0.016157
vn -0.664962 -0.687567 0.291679
vn -0.723641 0.687567 0.059963
vn -0.996584 0.000000 0.082579
vn -0.040085 0.999191 0.003321
vn 0.683497 0.727753 -0.056636
vn 0.996584 -0.000000 -0.082579
vn 0.683496 -0.727753 -0.056636
vn -0.040085 -0.999191 0.003322
vn -0.723641 -0.687567 0.059963
vn -0.703902 0.687567 -0.178252
vn -0.969400 0.000000 -0.245485
vn -0.038992 0.999191 -0.009874
vn 0.664853 0.727753 0.168364
vn 0.969400 0.000000 0.245485
vn 0.664852 -0.727753 0.168364
vn -0.038992 -0.999191 -0.009874
vn -0.703902 -0.687567 -0.178252
vn -0.607884 0.687567 -0.397150
vn -0.837166 -0.000000 -0.546948
vn -0.033673 0.999191 -0.022000
vn 0.574162 0.727753 0.375119
vn 0.837166 0.000000 0.546948
vn 0.574161 -0.727753 0.375119
vn -0.033673 -0.999191 -0.022000
vn -0.607884 -0.687567 -0.397150
vn -0.445993 0.687567 -0.573011
vn -0.614213 -0.000000 -0.789141
vn -0.024705 0.999191 -0.031741
vn 0.421251 0.727753 0.541223
vn 0.614213 0.000000 0.789141
vn 0.421251 -0.727753 0.541224
vn -0.024705 -0.999191 -0.031741
vn -0.445993 -0.687567 -0.573011
vn -0.235771 0.687567 -0.686778
vn -0.324699 -0.000000 -0.945817
vn -0.013060 0.999191 -0.038043
vn 0.222692 0.727753 0.648678
vn 0.324700 0.000000 0.945817
vn 0.222692 -0.727753 0.648678
vn -0.013060 -0.999191 -0.038043
vn -0.235771 -0.687567 -0.686777
vn 0.945817 -0.000000 0.324699
vn 0.945817 -0.000000 0.324699
vn 0.945817 -0.000000 0.324699
vn 0.945817 0.000001 0.324700
vn 0.945817 0.000001 0.324700
vn 0.945817 0.000001 0.324700
vn 0.945817 0.000001 0.324700
vn 0.945817 0.000001 0.324700
vn 0.945817 -0.000000 0.324699
vn 0.945817 -0.000000 0.324699
vn 0.945817 -0.000000 0.324699
vn 0.173648 0.000000 0.984808
vn 0.173648 0.000000 0.984808
vn 0.173648 0.000000 0.984808
vn 0.905996 -0.000000 -0.423287
vn 0.778577 -0.482867 -0.400820
vn 0.778577 -0.482867 -0.400820
vn 0.905996 -0.000000 -0.423287
vn 0.430464 -0.836351 -0.339438
vn 0.430464 -0.836351 -0.339438
vn -0.045068 -0.965735 -0.255589
vn -0.045067 -0.965734 -0.255589
vn -0.520599 -0.836351 -0.171740
vn -0.520599 -0.836351 -0.171740
vn -0.868712 -0.482867 -0.110358
vn -0.996130 -0.000000 -0.087891
vn -0.996130 -0.000000 -0.087891
vn -0.868712 0.482867 -0.110358
vn -0.868712 0.482867 -0.110358
vn -0.520599 0.836350 -0.171740
vn -0.520599 0.836350 -0.171740
vn -0.045068 0.965734 -0.255589
vn -0.045068 0.965734 -0.255589
vn 0.430464 0.836351 -0.339438
vn 0.430464 0.836351 -0.339438
vn 0.778577 0.482867 -0.400820
vn 0.778577 0.482867 -0.400820
vn 1.000000 0.000000 0.000000
vn 0.773664 -0.389812 0.499490
vn 0.773664 -0.389812 0.499490
vn 0.876527 -0.000000 0.481352
vn 0.876527 -0.000000 0.481352
vn 0.492637 -0.675175 0.549043
vn 0.492637 -0.675175 0.549043
vn 0.108747 -0.779624 0.616734
vn 0.108747 -0.779624 0.616733
vn -0.275143 -0.675174 0.684424
vn -0.275143 -0.675174 0.684424
vn -0.556170 -0.389812 0.733976
vn -0.556170 -0.389812 0.733976
vn -0.659033 -0.000000 0.752114
vn -0.659033 -0.000000 0.752114
vn -0.556170 0.389812 0.733976
vn -0.556170 0.389812 0.733976
vn -0.275143 0.675174 0.684424
vn -0.275143 0.675174 0.684424
vn 0.108747 0.779624 0.616733
vn 0.108746 0.779624 0.616733
vn 0.492636 0.675175 0.549043
vn 0.492636 0.675175 0.549043
vn 0.773664 0.389812 0.499490
vn 0.773664 0.389812 0.499490
vt 0.000000 0.000000
vt 0.125000 0.000000
vt 0.125000 0.052632
vt 0.000000 0.052632
vt 0.250000 0.000000
vt 0.250000 0.052632
vt 0.375000 0.000000
vt 0.375000 0.052632
vt 0.500000 0.000000
vt 0.500000 0.052632
vt 0.625000 0.000000
vt 0.625000 0.052632
vt 0.750000 0.000000
vt 0.750000 0.052632
vt 0.875000 0.000000
vt 0.875000 0.052632
vt 1.000000 0.000000
vt 1.000000 0.052632
vt 0.000000 0.263158
vt 0.125000 0.263158
vt 0.125000 0.315789
vt 0.000000 0.315789
vt 0.250000 0.263158
vt 0.250000 0.315789
vt 0.375000 0.263158
vt 0.375000 0.315789
vt 0.500000 0.263158
vt 0.500000 0.315789
vt 0.625000 0.263158
vt 0.625000 0.315789
vt 0.750000 0.263158
vt 0.750000 0.315789
vt 0.875000 0.263158
vt 0.875000 0.315789
vt 1.000000 0.263158
vt 1.000000 0.315789
vt 0.125000 0.368421
vt 0.000000 0.368421
vt 0.250000 0.368421
vt 0.375000 0.368421
vt 0.500000 0.368421
vt 0.625000 0.368421
vt 0.750000 0.368421
vt 0.875000 0.368421
vt 1.000000 0.368421
vt 0.125000 0.421053
vt 0.000000 0.421053
vt 0.250000 0.421053
vt 0.375000 0.421053
vt 0.500000 0.421053
vt 0.625000 0.421053
vt 0.750000 0.421053
vt 0.875000 0.421053
vt 1.000000 0.421053
vt 0.125000 0.473684
vt 0.000000 0.473684
vt 0.250000 0.473684
vt 0.375000 0.473684
vt 0.500000 0.473684
vt 0.625000 0.473684
vt 0.750000 0.473684
vt 0.875000 0.473684
vt 1.000000 0.473684
vt 0.125000 0.526316
vt 0.000000 0.526316
vt 0.250000 0.526316
vt 0.375000 0.526316
vt 0.500000 0.526316
vt 0.625000 0.526316
vt 0.750000 0.526316
vt 0.875000 0.526316
vt 1.000000 0.526316
vt 0.125000 0.578947
vt 0.000000 0.578947
vt 0.250000 0.578947
vt 0.375000 0.578947
vt 0.500000 0.578947
vt 0.625000 0.578947
vt 0.750000 0.578947
vt 0.875000 0.578947
vt 1.000000 0.578947
vt 0.125000 0.631579
vt 0.000000 0.631579
vt 0.250000 0.631579
vt 0.375000 0.631579
vt 0.500000 0.631579
vt 0.625000 0.631579
vt 0.750000 0.631579
vt 0.875000 0.631579
vt 1.000000 0.631579
vt 0.125000 0.684211
vt 0.000000 0.684211
vt 0.250000 0.684211
vt 0.375000 0.684211
vt 0.500000 0.684211
vt 0.625000 0.684211
vt 0.750000 0.684211
vt 0.875000 0.684211
vt 1.000000 0.684211
vt 0.125000 0.736842
vt 0.000000 0.736842
vt 0.250000 0.736842
vt 0.375000 0.736842
vt 0.500000 0.736842
vt 0.625000 0.736842
vt 0.750000 0.736842
vt 0.875000 0.736842
vt 1.000000 0.736842
vt 0.125000 0.789474
vt 0.000000 0.789474
vt 0.250000 0.789474
vt 0.375000 0.789474
vt 0.500000 0.789474
vt 0.625000 0.789474
vt 0.750000 0.789474
vt 0.875000 0.789474
vt 1.000000 0.789474
vt 0.125000 0.842105
vt 0.000000 0.842105
vt 0.250000 0.842105
vt 0.375000 0.842105
vt 0.500000 0.842105
vt 0.625000 0.842105
vt 0.750000 0.842105
vt 0.875000 0.842105
vt 1.000000 0.842105
vt 0.125000 0.894737
vt 0.000000 0.894737
vt 0.250000 0.894737
vt 0.375000 0.894737
vt 0.500000 0.894737
vt 0.625000 0.894737
vt 0.750000 0.894737
vt 0.875000 0.894737
vt 1.000000 0.894737
vt 0.125000 0.947368
vt 0.000000 0.947368
vt 0.250000 0.947368
vt 0.375000 0.947368
vt 0.500000 0.947368
vt 0.625000 0.947368
vt 0.750000 0.947368
vt 0.875000 0.947368
vt 1.000000 0.947368
vt 0.125000 1.000000
vt 0.000000 1.000000
vt 0.250000 1.000000
vt 0.375000 1.000000
vt 0.500000 1.000000
vt 0.625000 1.000000
vt 0.750000 1.000000
vt 0.875000 1.000000
vt 1.000000 1.000000
vt 0.525389 0.000000
vt 0.315513 0.000000
vt 0.192056 0.000000
vt 0.175771 0.000000
vt 0.235685 0.000000
vt 0.372587 0.000000
vt 0.543629 0.000000
vt 0.709145 0.000000
vt 0.807944 0.000000
vt 0.848887 0.000000
vt 0.833333 0.000000
vt 0.704401 0.000000
vt 0.737023 0.051906
vt 0.816031 0.051906
vt 0.895039 0.051906
vt -0.053055 0.051906
vt 0.025953 0.051906
vt 0.104961 0.051906
vt 0.183969 0.051906
vt 0.262977 0.051906
vt 0.341984 0.051906
vt 0.420992 0.051906
vt 0.500000 0.051906
vt 0.579008 0.051906
vt 0.658015 0.051906
vt 0.488501 0.390417
vt 0.437225 0.371250
vt 0.552646 0.389947
vt 0.501307 0.369841
vt 0.658962 0.388076
vt 0.607374 0.364229
vt 0.734033 0.387244
vt 0.682334 0.361731
vt 0.769855 0.387715
vt 0.718219 0.363143
vt 0.450000 0.400000
vt 0.400000 0.400000
vt 0.765621 0.391177
vt 0.714446 0.373531
vt 0.833384 0.390587
vt 0.782131 0.371760
vt 0.947266 0.388465
vt 0.895730 0.365394
vt 1.130344 0.384044
vt 1.078220 0.352133
f 1/1/1 2/2/2 10/3/3 9/4/4
f 2/2/2 3/5/5 11/6/6 10/3/3
f 3/5/5 4/7/7 12/8/8 11/6/6
f 4/7/7 5/9/9 13/10/10 12/8/8
f 5/9/9 6/11/11 14/12/12 13/10/10
f 6/11/11 7/13/13 15/14/14 14/12/12
f 7/13/13 8/15/15 16/16/16 15/14/14
f 8/15/15 1/17/1 9/18/4 16/16/16
f 17/19/17 18/20/18 26/21/19 25/22/20
f 18/20/18 19/23/21 27/24/22 26/21/19
f 19/23/21 20/25/23 28/26/24 27/24/22
f 20/25/23 21/27/25 29/28/26 28/26/24
f 21/27/25 22/29/27 30/30/28 29/28/26
f 22/29/27 23/31/29 31/32/30 30/30/28
f 23/31/29 24/33/31 32/34/32 31/32/30
f 24/33/31 17/35/17 25/36/20 32/34/32
f 25/22/20 26/21/19 34/37/33 33/38/34
f 26/21/19 27/24/22 35/39/35 34/37/33
f 27/24/22 28/26/24 36/40/36 35/39/35
f 28/26/24 29/28/26 37/41/37 36/40/36
f 29/28/26 30/30/28 38/42/38 37/41/37
f 30/30/28 31/32/30 39/43/39 38/42/38
f 31/32/30 32/34/32 40/44/40 39/43/39
f 32/34/32 25/36/20 33/45/34 40/44/40
f 33/38/34 34/37/33 42/46/41 41/47/42
f 34/37/33 35/39/35 43/48/43 42/46/41
f 35/39/35 36/40/36 44/49/44 43/48/43
f 36/40/36 37/41/37 45/50/45 44/49/44
f 37/41/37 38/42/38 46/51/46 45/50/45
f 38/42/38 39/43/39 47/52/47 46/51/46
f 39/43/39 40/44/40 48/53/48 47/52/47
f 40/44/40 33/45/34 41/54/42 48/53/48
f 41/47/42 42/46/41 50/55/49 49/56/50
f 42/46/41 43/48/43 51/57/51 50/55/49
f 43/48/43 44/49/44 52/58/52 51/57/51
f 44/49/44 45/50/45 53/59/53 52/58/52
f 45/50/45 46/51/46 54/60/54 53/59/53
f 46/51/46 47/52/47 55/61/55 54/60/54
f 47/52/47 48/53/48 56/62/56 55/61/55
f 48/53/48 41/54/42 49/63/50 56/62/56
f 49/56/50 50/55/49 58/64/57 57/65/58
f 50/55/49 51/57/51 59/66/59 58/64/57
f 51/57/51 52/58/52 60/67/60 59/66/59
f 52/58/52 53/59/53 61/68/61 60/67/60
f 53/59/53 54/60/54 62/69/62 61/68/61
f 54/60/54 55/61/55 63/70/63 62/69/62
f 55/61/55 56/62/56 64/71/64 63/70/63
f 56/62/56 49/63/50 57/72/58 64/71/64
f 57/65/58 58/64/57 66/73/65 65/74/66
f 58/64/57 59/66/59 67/75/67 66/73/65
f 59/66/59 60/67/60 68/76/68 67/75/67
f 60/67/60 61/68/61 69/77/69 68/76/68
f 61/68/61 62/69/62 70/78/70 69/77/69
f 62/69/62 63/70/63 71/79/71 70/78/70
f 63/70/63 64/71/64 72/80/72 71/79/71
f 64/71/64 57/72/58 65/81/66 72/80/72
f 65/74/66 66/73/65 74/82/73 73/83/74
f 66/73/65 67/75/67 75/84/75 74/82/73
f 67/75/67 68/76/68 76/85/76 75/84/75
f 68/76/68 69/77/69 77/86/77 76/85/76
f 69/77/69 70/78/70 78/87/78 77/86/77
f 70/78/70 71/79/71 79/88/79 78/87/78
f 71/79/71 72/80/72 80/89/80 79/88/79
f 72/80/72 65/81/66 73/90/74 80/89/80
f 73/83/74 74/82/73 82/91/81 81/92/82
f 74/82/73 75/84/75 83/93/83 82/91/81
f 75/84/75 76/85/76 84/94/84 83/93/83
f 76/85/76 77/86/77 85/95/85 84/94/84
f 77/86/77 78/87/78 86/96/86 85/95/85
f 78/87/78 79/88/79 87/97/87 86/96/86
f 79/88/79 80/89/80 88/98/88 87/97/87
f 80/89/80 73/90/74 81/99/82 88/98/88
f 81/92/82 82/91/81 90/100/89 89/101/90
f 82/91/81 83/93/83 91/102/91 90/100/89
f 83/93/83 84/94/84 92/103/92 91/102/91
f 84/94/84 85/95/85 93/104/93 92/103/92
f 85/95/85 86/96/86 94/105/94 93/104/93
f 86/96/86 87/97/87 95/106/95 94/105/94
f 87/97/87 88/98/88 96/107/96 95/106/95
f 88/98/88 81/99/82 89/108/90 96/107/96
f 89/101/90 90/100/89 98/109/97 97/110/98
f 90/100/89 91/102/91 99/111/99 98/109/97
f 91/102/91 92/103/92 100/112/100 99/111/99
f 92/103/92 93/104/93 101/113/101 100/112/100
f 93/104/93 94/105/94 102/114/102 101/113/101
f 94/105/94 95/106/95 103/115/103 102/114/102
f 95/106/95 96/107/96 104/116/104 103/115/103
f 96/107/96 89/108/90 97/117/98 104/116/104
f 97/110/98 98/109/97 106/118/105 105/119/106
f 98/109/97 99/111/99 107/120/107 106/118/105
f 99/111/99 100/112/100 108/121/108 107/120/107
f 100/112/100 101/113/101 109/122/109 108/121/108
f 101/113/101 102/114/102 110/123/110 109/122/109
f 102/114/102 103/115/103 111/124/111 110/123/110
f 103/115/103 104/116/104 112/125/112 111/124/111
f 104/116/104 97/117/98 105/126/106 112/125/112
f 105/119/106 106/118/105 114/127/113 113/128/114
f 106/118/105 107/120/107 115/129/115 114/127/113
f 107/120/107 108/121/108 116/130/116 115/129/115
f 108/121/108 109/122/109 117/131/117 116/130/116
f 109/122/109 110/123/110 118/132/118 117/131/117
f 110/123/110 111/124/111 119/133/119 118/132/118
f 111/124/111 112/125/112 120/134/120 119/133/119
f 112/125/112 105/126/106 113/135/114 120/134/120
f 113/128/114 114/127/113 122/136/121 121/137/122
f 114/127/113 115/129/115 123/138/123 122/136/121
f 115/129/115 116/130/116 124/139/124 123/138/123
f 116/130/116 117/131/117 125/140/125 124/139/124
f 117/131/117 118/132/118 126/141/126 125/140/125
f 118/132/118 119/133/119 127/142/127 126/141/126
f 119/133/119 120/134/120 128/143/128 127/142/127
f 120/134/120 113/135/114 121/144/122 128/143/128
f 121/137/122 122/136/121 2/145/2 1/146/1
f 122/136/121 123/138/123 3/147/5 2/145/2
f 123/138/123 124/139/124 4/148/7 3/147/5
f 124/139/124 125/140/125 5/149/9 4/148/7
f 125/140/125 126/141/126 6/150/11 5/149/9
f 126/141/126 127/142/127 7/151/13 6/150/11
f 127/142/127 128/143/128 8/152/15 7/151/13
f 128/143/128 121/144/122 1/153/1 8/152/15
f 12/8/129 13/10/130 9/4/131 10/3/130
f 14/12/132 15/14/133 16/16/132 9/4/132
f 12/8/134 10/3/135 11/6/136
f 13/10/137 14/12/138 9/4/139
f 164/154/140 139/155/141 138/156/141 137/157/141 136/158/141 135/159/142 134/160/141 133/161/141 132/162/141 131/163/141 130/164/141 153/165/142
f 129/166/143 154/167/144 142/149/145 141/149/146
f 154/167/144 155/168/147 143/149/148 142/149/145
f 155/169/147 156/170/149 144/149/150 143/149/148
f 156/170/149 157/171/151 145/149/152 144/149/150
f 157/171/151 158/172/153 146/149/153 145/149/152
f 158/172/153 159/173/154 147/149/155 146/149/153
f 159/173/154 160/174/156 148/149/157 147/149/155
f 160/174/156 161/175/158 149/149/159 148/149/157
f 161/175/158 162/176/160 150/149/161 149/149/159
f 162/176/160 163/177/162 151/149/163 150/149/161
f 163/177/162 140/178/164 152/149/165 151/149/163
f 140/178/164 129/166/143 141/149/146 152/149/165
f 152/149/166 141/149/166 142/149/166 143/149/166 144/149/166 145/149/166 146/149/166 147/149/166 148/149/166 149/149/166 150/149/166 151/149/166
f 130/164/167 154/167/168 129/166/169 153/165/170
f 131/163/171 155/168/172 154/167/168 130/164/167
f 132/179/173 156/170/174 155/169/172 131/180/171
f 133/181/175 157/171/176 156/170/174 132/182/173
f 134/183/177 158/172/178 157/171/176 133/184/175
f 135/185/179 159/173/180 158/172/178 134/186/177
f 136/187/181 160/174/182 159/173/180 135/188/179
f 137/189/183 161/175/184 160/174/182 136/190/181
f 138/191/185 162/176/186 161/175/184 137/192/183
f 139/193/187 163/177/188 162/176/186 138/194/185
f 164/195/189 140/178/190 163/177/188 139/196/187
f 153/197/170 129/166/169 140/178/190 164/198/189
