v -0.451906 0.000000 0.451906
v 0.451906 0.000000 0.451906
v -0.451906 -0.000000 -0.451906
v 0.451906 -0.000000 -0.451906
v -0.451906 0.903812 0.451906
v 0.451906 0.903812 0.451906
v -0.451906 0.903812 -0.451906
v 0.451906 0.903812 -0.451906
vn 0.000000 -1.000000 0.000000
vn 0.000000 1.000000 -0.000000
vn 0.000000 0.000000 1.000000
vn 1.000000 0.000000 0.000000
vn 0.000000 -0.000000 -1.000000
vn -1.000000 0.000000 -0.000000
vt 1.000000 0.000000
vt 1.000000 1.000000
vt 0.000000 1.000000
vt 0.000000 0.000000
f 1/1/1 3/2/1 4/3/1
f 4/3/1 2/4/1 1/1/1
f 5/4/2 6/1/2 8/2/2
f 8/2/2 7/3/2 5/4/2
f 1/4/3 2/1/3 6/2/3
f 6/2/3 5/3/3 1/4/3
f 2/4/4 4/1/4 8/2/4
f 8/2/4 6/3/4 2/4/4
f 4/4/5 3/1/5 7/2/5
f 7/2/5 8/3/5 4/4/5
f 3/4/6 1/1/6 5/2/6
f 5/2/6 7/3/6 3/4/6
