#
#
#

mtllib pillar.mtl


#
# Cylinder
#
g Cylinder


#
# Cylinder_Phong[16]
#
usemtl Cylinder_Phong[16]

v 1.000000 2.500000 0.000000
v 0.951057 2.500000 0.309017
v 0.809017 2.500000 0.587785
v 0.587785 2.500000 0.809017
v 0.309017 2.500000 0.951057
v 0.000000 2.500000 1.000000
v -0.309017 2.500000 0.951057
v -0.587785 2.500000 0.809017
v -0.809017 2.500000 0.587785
v -0.951057 2.500000 0.309017
v -1.000000 2.500000 0.000000
v -0.951057 2.500000 -0.309017
v -0.809017 2.500000 -0.587785
v -0.587785 2.500000 -0.809017
v -0.309017 2.500000 -0.951057
v -0.000000 2.500000 -1.000000
v 0.309017 2.500000 -0.951057
v 0.587785 2.500000 -0.809017
v 0.809017 2.500000 -0.587785
v 0.951057 2.500000 -0.309017
v 1.000000 -2.500000 0.000000
v 0.951057 -2.500000 0.309017
v 0.809017 -2.500000 0.587785
v 0.587785 -2.500000 0.809017
v 0.309017 -2.500000 0.951057
v 0.000000 -2.500000 1.000000
v -0.309017 -2.500000 0.951057
v -0.587785 -2.500000 0.809017
v -0.809017 -2.500000 0.587785
v -0.951057 -2.500000 0.309017
v -1.000000 -2.500000 0.000000
v -0.951057 -2.500000 -0.309017
v -0.809017 -2.500000 -0.587785
v -0.587785 -2.500000 -0.809017
v -0.309017 -2.500000 -0.951057
v -0.000000 -2.500000 -1.000000
v 0.309017 -2.500000 -0.951057
v 0.587785 -2.500000 -0.809017
v 0.809017 -2.500000 -0.587785
v 0.951057 -2.500000 -0.309017
v 0.000000 2.500000 0.000000
v 0.000000 -2.500000 0.000000
vn 1.000000 0.000000 0.000000
vn 0.951057 0.000000 0.309017
vn 0.000000 1.000000 0.000000
vn 0.000000 1.000000 0.000000
vn 0.000000 -1.000000 0.000000
vn 0.000000 -1.000000 0.000000
vn 0.809017 0.000000 0.587785
vn 0.000000 1.000000 0.000000
vn 0.000000 -1.000000 0.000000
vn 0.587785 0.000000 0.809017
vn 0.309017 0.000000 0.951056
vn 0.000000 0.000000 1.000000
vn -0.309017 0.000000 0.951056
vn -0.587785 0.000000 0.809017
vn -0.809017 0.000000 0.587785
vn -0.951057 0.000000 0.309017
vn -1.000000 0.000000 0.000000
vn -0.951057 0.000000 -0.309017
vn 0.000000 1.000000 -0.000000
vn 0.000000 -1.000000 -0.000000
vn -0.809017 0.000000 -0.587785
vn 0.000000 1.000000 -0.000000
vn 0.000000 1.000000 -0.000000
vn 0.000000 -1.000000 -0.000000
vn 0.000000 -1.000000 -0.000000
vn -0.587785 0.000000 -0.809017
vn -0.309017 0.000000 -0.951056
vn 0.000000 0.000000 -1.000000
vn 0.309017 0.000000 -0.951056
vn 0.587785 0.000000 -0.809017
vn 0.809017 0.000000 -0.587785
vn 0.951057 0.000000 -0.309017
vt 0.500000 1.000000
vt 0.475000 1.000000
vt 0.475000 0.000000
vt 0.500000 0.000000
vt 0.500000 0.750000
vt 0.750000 0.750000
vt 0.512236 0.827254
vt 0.512236 0.172746
vt 0.750000 0.250000
vt 0.500000 0.250000
vt 0.450000 1.000000
vt 0.450000 0.000000
vt 0.547746 0.896946
vt 0.547746 0.103054
vt 0.425000 1.000000
vt 0.425000 0.000000
vt 0.603054 0.952254
vt 0.603054 0.047746
vt 0.400000 1.000000
vt 0.400000 0.000000
vt 0.672746 0.987764
vt 0.672746 0.012236
vt 0.375000 1.000000
vt 0.375000 0.000000
vt 0.750000 1.000000
vt 0.750000 0.000000
vt 0.350000 1.000000
vt 0.350000 0.000000
vt 0.827254 0.987764
vt 0.827254 0.012236
vt 0.325000 1.000000
vt 0.325000 0.000000
vt 0.896946 0.952254
vt 0.896946 0.047746
vt 0.300000 1.000000
vt 0.300000 0.000000
vt 0.952254 0.896946
vt 0.952254 0.103054
vt 0.275000 1.000000
vt 0.275000 0.000000
vt 0.987764 0.827254
vt 0.987764 0.172746
vt 0.250000 1.000000
vt 0.250000 0.000000
vt 1.000000 0.750000
vt 1.000000 0.250000
vt 0.225000 1.000000
vt 0.225000 0.000000
vt 0.987764 0.672746
vt 0.987764 0.327254
vt 0.200000 1.000000
vt 0.200000 0.000000
vt 0.952254 0.603054
vt 0.952254 0.396946
vt 0.175000 1.000000
vt 0.175000 0.000000
vt 0.896946 0.547746
vt 0.896946 0.452254
vt 0.150000 1.000000
vt 0.150000 0.000000
vt 0.827254 0.512236
vt 0.827254 0.487764
vt 0.125000 1.000000
vt 0.125000 0.000000
vt 0.750000 0.500000
vt 0.100000 1.000000
vt 0.100000 0.000000
vt 0.672746 0.512236
vt 0.672746 0.487764
vt 0.075000 1.000000
vt 0.075000 0.000000
vt 0.603054 0.547746
vt 0.603054 0.452254
vt 0.050000 1.000000
vt 0.050000 0.000000
vt 0.547746 0.603054
vt 0.547746 0.396946
vt 0.025000 1.000000
vt 0.025000 0.000000
vt 0.512236 0.672746
vt 0.512236 0.327254
vt -0.000000 1.000000
vt -0.000000 0.000000
f 1/1/1 2/2/2 22/3/2 21/4/1
f 1/5/3 41/6/3 2/7/4
f 22/8/5 42/9/6 21/10/6
f 2/2/2 3/11/7 23/12/7 22/3/2
f 2/7/4 41/6/3 3/13/8
f 23/14/9 42/9/6 22/8/5
f 3/11/7 4/15/10 24/16/10 23/12/7
f 3/13/8 41/6/3 4/17/3
f 24/18/6 42/9/6 23/14/9
f 4/15/10 5/19/11 25/20/11 24/16/10
f 4/17/3 41/6/3 5/21/3
f 25/22/6 42/9/6 24/18/6
f 5/19/11 6/23/12 26/24/12 25/20/11
f 5/21/3 41/6/3 6/25/3
f 26/26/6 42/9/6 25/22/6
f 6/23/12 7/27/13 27/28/13 26/24/12
f 6/25/3 41/6/3 7/29/3
f 27/30/6 42/9/6 26/26/6
f 7/27/13 8/31/14 28/32/14 27/28/13
f 7/29/3 41/6/3 8/33/3
f 28/34/6 42/9/6 27/30/6
f 8/31/14 9/35/15 29/36/15 28/32/14
f 8/33/3 41/6/3 9/37/8
f 29/38/9 42/9/6 28/34/6
f 9/35/15 10/39/16 30/40/16 29/36/15
f 9/37/8 41/6/3 10/41/4
f 30/42/5 42/9/6 29/38/9
f 10/39/16 11/43/17 31/44/17 30/40/16
f 10/41/4 41/6/3 11/45/3
f 31/46/6 42/9/6 30/42/5
f 11/43/17 12/47/18 32/48/18 31/44/17
f 11/45/3 41/6/3 12/49/19
f 32/50/20 42/9/6 31/46/6
f 12/47/18 13/51/21 33/52/21 32/48/18
f 12/49/19 41/6/22 13/53/23
f 33/54/24 42/9/25 32/50/20
f 13/51/21 14/55/26 34/56/26 33/52/21
f 13/53/23 41/6/3 14/57/3
f 34/58/6 42/9/6 33/54/24
f 14/55/26 15/59/27 35/60/27 34/56/26
f 14/57/3 41/6/3 15/61/3
f 35/62/6 42/9/6 34/58/6
f 15/59/27 16/63/28 36/64/28 35/60/27
f 15/61/3 41/6/3 16/65/3
f 36/65/6 42/9/6 35/62/6
f 16/63/28 17/66/29 37/67/29 36/64/28
f 16/65/3 41/6/3 17/68/3
f 37/69/6 42/9/6 36/65/6
f 17/66/29 18/70/30 38/71/30 37/67/29
f 17/68/3 41/6/3 18/72/3
f 38/73/6 42/9/6 37/69/6
f 18/70/30 19/74/31 39/75/31 38/71/30
f 18/72/3 41/6/3 19/76/23
f 39/77/24 42/9/6 38/73/6
f 19/74/31 20/78/32 40/79/32 39/75/31
f 19/76/23 41/6/22 20/80/19
f 40/81/20 42/9/25 39/77/24
f 20/78/32 1/82/1 21/83/1 40/79/32
f 20/80/19 41/6/3 1/5/3
f 21/10/6 42/9/6 40/81/20
